/* XPM */
static char * haskell_20_xpm[] = {
"17 14 2 1",
" 	c None",
".	c #7bb2d4",
"                 ",
".... ...         ",
" ... ....        ",
" .... ....       ",
"  .... ... ......",
"   ... .... .....",
"   .... ....     ",
"   .... ....     ",
"   ... ...... ...",
"  .... ....... ..",
" .... .... ...   ",
" ... ....  ....  ",
".... ...    .... ",
"                 "};
